<?xml version="1.0" encoding="UTF-8" standalone="no"?>
<svg
   xmlns:dc="http://purl.org/dc/elements/1.1/"
   xmlns:cc="http://creativecommons.org/ns#"
   xmlns:rdf="http://www.w3.org/1999/02/22-rdf-syntax-ns#"
   xmlns:svg="http://www.w3.org/2000/svg"
   xmlns="http://www.w3.org/2000/svg"
   id="svg8"
   version="1.1"
   viewBox="0 0 155.21945 155.52655"
   height="155.52655mm"
   width="155.21945mm">
  <defs
     id="defs2" />
  <metadata
     id="metadata5">
    <rdf:RDF>
      <cc:Work
         rdf:about="">
        <dc:format>image/svg+xml</dc:format>
        <dc:type
           rdf:resource="http://purl.org/dc/dcmitype/StillImage" />
        <dc:title></dc:title>
      </cc:Work>
    </rdf:RDF>
  </metadata>
  <g
     transform="translate(-26.52759,-66.513003)"
     id="layer1">
    <path
       style="fill:#a2a19e;stroke-width:0.35277778"
       d="m 97.61161,221.92334 c -0.19403,-0.0824 -2.19201,-0.30949 -4.43996,-0.50467 -2.24795,-0.19518 -5.18483,-0.60768 -6.52639,-0.91667 -1.34156,-0.30899 -3.7092,-0.96727 -5.26143,-1.46286 -1.55222,-0.49558 -4.09222,-1.37796 -5.64444,-1.96083 -1.55222,-0.58288 -4.56847,-1.94684 -6.70278,-3.03101 -2.1343,-1.08418 -5.22744,-2.83525 -6.87364,-3.89127 -1.64619,-1.05602 -4.34494,-2.96536 -5.99722,-4.24299 -1.65228,-1.27762 -4.75944,-4.075 -6.90481,-6.2164 -2.14537,-2.1414 -4.77051,-5.0047 -5.83363,-6.36289 -1.06312,-1.3582 -2.65141,-3.50132 -3.52952,-4.7625 -0.87811,-1.26119 -2.32911,-3.56306 -3.22445,-5.11528 -0.89534,-1.55222 -2.25766,-4.1716 -3.02738,-5.82084 -0.76972,-1.64923 -1.74098,-3.83824 -2.15835,-4.86446 -0.41737,-1.02622 -1.07379,-2.93122 -1.45871,-4.23334 -0.38493,-1.30211 -0.8541,-2.64313 -1.0426,-2.98005 -0.18851,-0.33691 -0.34275,-0.89887 -0.34275,-1.2488 0,-0.34992 -0.22644,-1.5056 -0.5032,-2.56817 -0.27677,-1.06257 -0.75302,-4.3249 -1.05834,-7.24962 -0.30532,-2.92472 -0.55481,-7.52589 -0.55442,-10.22481 3.8e-4,-2.69892 0.23734,-7.15188 0.52658,-9.89547 0.28923,-2.74358 0.85928,-6.39483 1.26678,-8.11389 0.4075,-1.71906 1.29263,-4.77662 1.96696,-6.79457 0.67433,-2.01795 1.87239,-5.11358 2.66235,-6.87916 0.78996,-1.76559 2.4063,-4.92678 3.59187,-7.02485 1.18558,-2.09808 3.62383,-5.778237 5.41835,-8.178137 1.79452,-2.39989 4.9817,-6.08238 7.08262,-8.1833 2.10092,-2.10092 5.39518,-5.0262 7.32057,-6.50062 1.9254,-1.47441 4.37384,-3.23812 5.441,-3.91935 1.06715,-0.68122 3.28965,-1.98489 4.93889,-2.89703 1.64923,-0.91214 4.26861,-2.22259 5.82083,-2.91211 1.55222,-0.68951 4.40972,-1.80024 6.35,-2.46828 1.94028,-0.66804 5.11528,-1.60619 7.05556,-2.08477 1.94027,-0.47858 5.9884,-1.10216 8.99583,-1.38574 3.00743,-0.28358 7.13493,-0.5156 9.17223,-0.5156 2.03729,0 6.1648,0.23293 9.17223,0.51763 3.00743,0.2847 6.81743,0.84334 8.46667,1.24143 1.64923,0.39808 4.90361,1.35521 7.23194,2.12695 2.32834,0.77174 6.29709,2.40999 8.81945,3.64056 2.52236,1.23056 5.69736,2.91949 7.05555,3.75316 1.3582,0.83367 3.97757,2.63213 5.82084,3.99657 1.84326,1.36445 5.30454,4.39347 7.69172,6.73116 2.38718,2.33768 5.32406,5.49762 6.52639,7.02209 1.20233,1.52446 3.10396,4.14862 4.22585,5.831467 1.12189,1.68284 2.99345,4.92525 4.15901,7.20535 1.16556,2.28011 2.68515,5.61107 3.37686,7.40215 0.69172,1.79107 1.54885,4.21178 1.90475,5.37935 0.3559,1.16758 0.97992,3.44118 1.38671,5.05247 0.4068,1.61127 0.97171,5.34189 1.25535,8.29027 0.28364,2.94838 0.51571,7.26569 0.51571,9.59402 0,2.32834 -0.23368,6.66248 -0.51931,9.63144 -0.28562,2.96895 -0.92678,7.01708 -1.42481,8.99583 -0.49803,1.97876 -1.45261,5.20441 -2.1213,7.16812 -0.66868,1.96371 -1.98846,5.2251 -2.93285,7.24753 -0.94439,2.02244 -2.71836,5.33701 -3.94217,7.36573 -1.2238,2.02872 -2.85408,4.54207 -3.62283,5.58523 -0.76876,1.04316 -2.77955,3.50378 -4.46843,5.46806 -1.68887,1.96427 -4.04865,4.4743 -5.24394,5.57786 -1.1953,1.10355 -3.4846,3.01996 -5.08735,4.25868 -1.60275,1.23873 -3.86659,2.89053 -5.03075,3.67069 -1.16417,0.78015 -2.59292,1.71529 -3.175,2.07808 -0.58209,0.3628 -2.48709,1.40516 -4.23334,2.31635 -1.74625,0.9112 -4.52437,2.21196 -6.17361,2.89057 -1.64923,0.67861 -4.50673,1.7134 -6.35,2.29952 -1.84326,0.58613 -4.4445,1.32257 -5.78054,1.63655 -1.33603,0.31399 -3.87603,0.73025 -5.64444,0.92503 -1.76841,0.19478 -6.54905,0.42301 -10.62364,0.50719 -4.07459,0.0842 -7.56709,0.0856 -7.76112,0.003 z"
       id="path3857" />
    <path
       style="fill:#ef9410;stroke-width:0.35277778"
       d="m 95.67134,221.53216 c -2.23132,-0.25041 -4.77132,-0.6065 -5.64445,-0.79131 -0.87312,-0.18481 -2.69875,-0.58445 -4.05694,-0.8881 -1.3582,-0.30364 -3.66007,-0.9462 -5.11528,-1.42792 -1.45521,-0.48171 -3.75074,-1.29514 -5.10119,-1.80763 -1.35044,-0.51248 -4.44606,-1.94416 -6.87916,-3.18151 -2.4331,-1.23735 -5.77319,-3.15726 -7.42243,-4.26647 -1.64924,-1.1092 -4.0485,-2.85323 -5.33169,-3.87561 -1.28319,-1.02238 -3.72242,-3.174 -5.4205,-4.78139 -1.69809,-1.60738 -4.354,-4.43573 -5.90201,-6.28521 -1.54802,-1.84949 -3.81949,-4.87083 -5.04771,-6.7141 -1.22822,-1.84326 -3.182,-5.17701 -4.34174,-7.40833 -1.15974,-2.23132 -2.66711,-5.4857 -3.34971,-7.23195 -0.6826,-1.74625 -1.62778,-4.445 -2.10039,-5.99722 -0.47261,-1.55222 -1.13018,-4.1716 -1.46126,-5.82083 -0.33108,-1.64924 -0.74346,-3.47486 -0.9164,-4.05695 -0.17294,-0.58208 -0.51241,-3.72116 -0.75437,-6.97574 -0.34472,-4.63666 -0.34927,-7.01317 -0.021,-10.98012 0.2304,-2.78449 0.82691,-7.07742 1.32558,-9.53985 0.49867,-2.46242 1.36057,-5.93513 1.91532,-7.71711 0.55475,-1.78198 1.43079,-4.35121 1.94675,-5.70941 0.51596,-1.35819 1.83224,-4.28368 2.92507,-6.50108 1.09284,-2.21739 3.20328,-5.86864 4.68988,-8.11388 1.4866,-2.245247 4.27717,-5.901977 6.20127,-8.126077 1.9241,-2.2241 5.28108,-5.58507 7.45996,-7.46882 2.17889,-1.88375 5.74485,-4.6106 7.92438,-6.05966 2.17951,-1.44905 5.70901,-3.51134 7.84332,-4.58285 2.1343,-1.07151 5.11235,-2.43733 6.61787,-3.03516 1.50553,-0.59783 4.29692,-1.55028 6.2031,-2.11656 1.90619,-0.56629 5.04002,-1.34639 6.96408,-1.73357 1.92405,-0.38717 4.68891,-0.87228 6.14411,-1.078 1.45521,-0.20573 4.233332,-0.45352 6.17361,-0.55064 1.94028,-0.0971 5.35341,-0.034 7.58474,0.14031 2.23132,0.1743 5.30767,0.49374 6.83633,0.70988 1.52867,0.21613 4.88516,0.93267 7.45889,1.59231 2.57372,0.65964 6.24425,1.78401 8.15672,2.49861 1.91247,0.7146 5.20952,2.16652 7.32676,3.22649 2.11724,1.05997 5.1035,2.70495 6.63612,3.65551 1.53262,0.95056 4.3566,2.93174 6.2755,4.40261 1.9189,1.47088 5.04762,4.2111 6.9527,6.08939 1.90508,1.87829 4.46073,4.64253 5.67923,6.14274 1.2185,1.50022 3.25532,4.27835 4.52627,6.173617 1.27094,1.89527 3.47786,5.82719 4.90426,8.73761 1.42641,2.91042 3.07644,6.69056 3.66675,8.40033 0.5903,1.70976 1.47359,4.64664 1.96286,6.52639 0.48927,1.87976 1.23101,5.40211 1.64833,7.82746 0.60419,3.51144 0.75876,5.84696 0.75878,11.46527 2e-5,5.12327 -0.17113,8.07001 -0.62493,10.75973 -0.34373,2.03729 -0.99279,5.29166 -1.44235,7.23194 -0.44956,1.94028 -1.40393,5.26114 -2.12081,7.37969 -0.71689,2.11856 -2.13043,5.61106 -3.14119,7.76111 -1.01077,2.15006 -2.74926,5.40461 -3.86332,7.23233 -1.11405,1.82772 -3.15493,4.81914 -4.53528,6.64759 -1.38034,1.82846 -4.01223,4.90467 -5.84863,6.83603 -1.8364,1.93136 -4.94277,4.80316 -6.90303,6.38178 -1.96027,1.57862 -5.07225,3.84715 -6.91551,5.04119 -1.84327,1.19403 -5.25639,3.11644 -7.58473,4.27202 -2.32833,1.15558 -5.34458,2.5166 -6.70278,3.0245 -1.35819,0.5079 -3.73944,1.31306 -5.29166,1.78926 -1.55222,0.47619 -4.09222,1.13897 -5.64445,1.47283 -1.55222,0.33387 -3.45722,0.74624 -4.23333,0.91638 -0.77611,0.17014 -3.24514,0.474 -5.48674,0.67524 -2.24159,0.20124 -5.7341,0.34391 -7.76112,0.31705 -2.02703,-0.0269 -5.51112,-0.25373 -7.74243,-0.50414 z"
       id="path3855" />
    <path
       style="fill:#a56c1b;stroke-width:0.35277778"
       d="m 95.67134,221.53216 c -2.23132,-0.25041 -4.77132,-0.6065 -5.64445,-0.79131 -0.87312,-0.18481 -2.69875,-0.58445 -4.05694,-0.8881 -1.3582,-0.30364 -3.66007,-0.9462 -5.11528,-1.42792 -1.45521,-0.48171 -3.75074,-1.29514 -5.10119,-1.80763 -1.35044,-0.51248 -4.44606,-1.94416 -6.87916,-3.18151 -2.4331,-1.23735 -5.77319,-3.15726 -7.42243,-4.26647 -1.64924,-1.1092 -4.0485,-2.85323 -5.33169,-3.87561 -1.28319,-1.02238 -3.72242,-3.174 -5.4205,-4.78139 -1.69809,-1.60738 -4.354,-4.43573 -5.90201,-6.28521 -1.54802,-1.84949 -3.81949,-4.87083 -5.04771,-6.7141 -1.22822,-1.84326 -3.182,-5.17701 -4.34174,-7.40833 -1.15974,-2.23132 -2.66711,-5.4857 -3.34971,-7.23195 -0.6826,-1.74625 -1.62778,-4.445 -2.10039,-5.99722 -0.47261,-1.55222 -1.13018,-4.1716 -1.46126,-5.82083 -0.33108,-1.64924 -0.74346,-3.47486 -0.9164,-4.05695 -0.17294,-0.58208 -0.51241,-3.72116 -0.75437,-6.97574 -0.34472,-4.63666 -0.34927,-7.01317 -0.021,-10.98012 0.2304,-2.78449 0.82691,-7.07742 1.32558,-9.53985 0.49867,-2.46242 1.36057,-5.93513 1.91532,-7.71711 0.55475,-1.78198 1.43079,-4.35121 1.94675,-5.70941 0.51596,-1.35819 1.83224,-4.28368 2.92507,-6.50108 1.09284,-2.21739 3.20328,-5.86864 4.68988,-8.11388 1.4866,-2.245247 4.27717,-5.901977 6.20127,-8.126077 1.9241,-2.2241 5.28108,-5.58507 7.45996,-7.46882 2.17889,-1.88375 5.74485,-4.6106 7.92438,-6.05966 2.17951,-1.44905 5.70901,-3.51134 7.84332,-4.58285 2.1343,-1.07151 5.11235,-2.43733 6.61787,-3.03516 1.50553,-0.59783 4.29692,-1.55028 6.2031,-2.11656 1.90619,-0.56629 5.04002,-1.34639 6.96408,-1.73357 1.92405,-0.38717 4.68891,-0.87228 6.14411,-1.078 1.45521,-0.20573 4.233332,-0.45352 6.17361,-0.55064 1.94028,-0.0971 5.35341,-0.034 7.58474,0.14031 2.23132,0.1743 5.30767,0.49374 6.83633,0.70988 1.52867,0.21613 4.88516,0.93267 7.45889,1.59231 2.57372,0.65964 6.24425,1.78401 8.15672,2.49861 1.91247,0.7146 5.20952,2.16652 7.32676,3.22649 2.11724,1.05997 5.1035,2.70495 6.63612,3.65551 1.53262,0.95056 4.3566,2.93174 6.2755,4.40261 1.9189,1.47088 5.04762,4.2111 6.9527,6.08939 1.90508,1.87829 4.46073,4.64253 5.67923,6.14274 1.2185,1.50022 3.25532,4.27835 4.52627,6.173617 1.27094,1.89527 3.47786,5.82719 4.90426,8.73761 1.42641,2.91042 3.07644,6.69056 3.66675,8.40033 0.5903,1.70976 1.47359,4.64664 1.96286,6.52639 0.48927,1.87976 1.23101,5.40211 1.64833,7.82746 0.60419,3.51144 0.75876,5.84696 0.75878,11.46527 2e-5,5.12327 -0.17113,8.07001 -0.62493,10.75973 -0.34373,2.03729 -0.99279,5.29166 -1.44235,7.23194 -0.44956,1.94028 -1.40393,5.26114 -2.12081,7.37969 -0.71689,2.11856 -2.13043,5.61106 -3.14119,7.76111 -1.01077,2.15006 -2.74926,5.40461 -3.86332,7.23233 -1.11405,1.82772 -3.15493,4.81914 -4.53528,6.64759 -1.38034,1.82846 -4.01223,4.90467 -5.84863,6.83603 -1.8364,1.93136 -4.94277,4.80316 -6.90303,6.38178 -1.96027,1.57862 -5.07225,3.84715 -6.91551,5.04119 -1.84327,1.19403 -5.25639,3.11644 -7.58473,4.27202 -2.32833,1.15558 -5.34458,2.5166 -6.70278,3.0245 -1.35819,0.5079 -3.73944,1.31306 -5.29166,1.78926 -1.55222,0.47619 -4.09222,1.13897 -5.64445,1.47283 -1.55222,0.33387 -3.45722,0.74624 -4.23333,0.91638 -0.77611,0.17014 -3.24514,0.474 -5.48674,0.67524 -2.24159,0.20124 -5.7341,0.34391 -7.76112,0.31705 -2.02703,-0.0269 -5.51112,-0.25373 -7.74243,-0.50414 z M 46.5477,165.72888 c 0.56655,-0.7276 3.13436,-4.45823 5.70625,-8.29027 2.57188,-3.83205 4.8752,-6.96736 5.11848,-6.96736 0.24328,0 0.68427,0.27781 0.97998,0.61736 0.29571,0.33954 2.71531,3.79236 5.37689,7.67291 2.66158,3.88056 5.16058,7.33337 5.55333,7.67292 0.57564,0.49767 1.38645,0.61736 4.18197,0.61736 1.90733,0 3.56076,-0.1503 3.67429,-0.33399 0.11353,-0.1837 -3.21085,-5.24793 -7.38752,-11.25386 -4.17665,-6.00594 -7.59393,-11.22834 -7.59393,-11.60536 0,-0.37701 3.17501,-5.2634 7.05556,-10.85864 3.88056,-5.59523 7.05556,-10.30316 7.05556,-10.46205 0,-0.15889 -1.80185,-0.28889 -4.00412,-0.28889 -4.00411,0 -4.00411,0 -8.88484,7.14376 -2.6844,3.92907 -5.04974,7.26262 -5.25631,7.4079 -0.20656,0.14527 -0.56814,0.22465 -0.80351,0.17638 -0.23537,-0.0483 -2.62121,-3.34212 -5.30187,-7.31969 -4.87393,-7.23196 -4.87393,-7.23196 -9.05104,-7.33171 -3.29716,-0.0787 -4.14032,-0.004 -4.00244,0.35545 0.0961,0.25037 3.25988,4.89902 7.03068,10.33032 3.7708,5.43131 6.97289,10.07026 7.11576,10.30878 0.14287,0.23853 0.0755,0.77797 -0.1497,1.19876 -0.2252,0.42079 -3.72177,5.52451 -7.77017,11.3416 -4.04839,5.81709 -7.27523,10.71484 -7.17076,10.88389 0.10448,0.16904 1.83412,0.30735 3.84366,0.30735 3.6537,0 3.6537,0 4.6838,-1.32292 z m 68.17365,0.40289 c 0.87313,-0.40439 2.27595,-1.42713 3.1174,-2.27276 0.84144,-0.84563 1.8988,-2.26551 2.34969,-3.15529 0.45088,-0.88978 0.99274,-2.55337 1.20413,-3.69687 0.25247,-1.36574 0.38434,-10.09602 0.38434,-25.44515 0,-12.85136 -0.0964,-23.6172 -0.21413,-23.92411 -0.17305,-0.45096 -0.81606,-0.55802 -3.35139,-0.55802 -3.13726,0 -3.13726,0 -3.13726,6.98813 0,5.04581 -0.12257,7.14942 -0.44097,7.56844 -0.38819,0.51086 -1.70774,0.59493 -11.02432,0.70244 -9.03157,0.10421 -10.823,0.21286 -12.2179,0.74098 -0.89901,0.34037 -2.26556,1.15896 -3.03676,1.81909 -0.77833,0.66622 -1.77763,2.0311 -2.24599,3.06767 -0.8438,1.86743 -0.8438,1.86743 -0.8438,16.5077 0,14.64028 0,14.64028 0.82774,16.30563 0.45525,0.91594 1.44029,2.21876 2.18896,2.89514 0.74868,0.67638 2.01827,1.56498 2.82131,1.97466 0.80304,0.40968 2.11988,0.8823 2.92631,1.05025 0.80643,0.16796 5.434982,0.27432 10.28569,0.23635 8.11151,-0.0635 8.94688,-0.12804 10.40695,-0.80428 z m -19.65459,-6.16164 c -0.62483,-0.1875 -1.57495,-0.91842 -2.11666,-1.62834 -0.98293,-1.28813 -0.98293,-1.28813 -1.07772,-13.31059 -0.0861,-10.92103 -0.0376,-12.13328 0.52917,-13.2321 0.34317,-0.66531 1.07172,-1.53843 1.61899,-1.94028 0.92679,-0.68052 1.54373,-0.73732 8.99584,-0.82814 7.09658,-0.0865 8.13751,-0.0267 9.21045,0.52916 0.66531,0.34468 1.53843,1.07489 1.94028,1.62269 0.70531,0.96149 0.73063,1.41386 0.73063,13.05278 0,12.03683 -0.001,12.05897 -0.82781,13.38824 -0.45529,0.73231 -1.32842,1.60543 -1.94027,1.94027 -0.94049,0.51469 -2.25782,0.61946 -8.52082,0.67767 -4.074588,0.0379 -7.91852,-0.0842 -8.54208,-0.27136 z m 69.4529,5.92464 c 1.0983,-0.53936 2.58497,-1.63156 3.3037,-2.42711 0.71874,-0.79556 1.72513,-2.33864 2.23642,-3.42908 0.92963,-1.98261 0.92963,-1.98261 0.92963,-15.91733 0,-13.93473 0,-13.93473 -1.01792,-16.1387 -0.58821,-1.27358 -1.6523,-2.78874 -2.5207,-3.5892 -0.82653,-0.76187 -2.11472,-1.55514 -2.86264,-1.76281 -0.86444,-0.24003 -6.66138,-0.37831 -15.91194,-0.37956 -14.55208,-0.002 -14.55208,-0.002 -14.55208,3.34942 0,3.3514 0,3.3514 13.00868,3.3514 7.15478,0 13.50252,0.0988 14.1061,0.21948 0.60358,0.12072 1.49655,0.58939 1.98438,1.04149 0.77053,0.71411 0.88695,1.12025 0.88695,3.09416 0,1.74648 -0.1291,2.3217 -0.55802,2.48629 -0.30691,0.11778 -5.0406,0.21414 -10.5193,0.21414 -7.75983,0 -10.34917,0.11519 -11.71642,0.52121 -0.96532,0.28668 -2.42923,1.09823 -3.25313,1.80346 -0.8239,0.70523 -1.86956,2.01849 -2.32367,2.91836 -0.45412,0.89988 -1.01712,2.50926 -1.25112,3.57641 -0.26904,1.22693 -0.38182,4.08031 -0.30676,7.76111 0.1088,5.33527 0.19101,5.96798 0.98556,7.58472 0.47677,0.97014 1.58802,2.48285 2.46944,3.36159 0.88143,0.87873 2.23759,1.9 3.0137,2.2695 0.77611,0.36949 1.96674,0.79 2.64583,0.93444 0.6791,0.14445 5.28285,0.23442 10.23056,0.19994 8.99583,-0.0627 8.99583,-0.0627 10.99275,-1.04333 z m -19.71131,-5.85925 c -0.81763,-0.14285 -1.82607,-0.56694 -2.24098,-0.94242 -0.4149,-0.37548 -0.97624,-1.11174 -1.24741,-1.63614 -0.35499,-0.68648 -0.49268,-2.36599 -0.49173,-5.99806 0.001,-4.38532 0.0915,-5.19258 0.69171,-6.1769 0.37972,-0.62276 1.32531,-1.4562 2.1013,-1.85208 1.28811,-0.65714 2.05807,-0.71979 8.84734,-0.71979 6.78926,0 7.55923,0.0627 8.84734,0.71979 0.77599,0.39588 1.72157,1.22932 2.10129,1.85208 0.60154,0.98657 0.69039,1.79064 0.69039,6.24758 0,4.44933 -0.0895,5.26205 -0.68739,6.24264 -0.37807,0.62004 -1.12437,1.41379 -1.65846,1.76389 -0.84757,0.55558 -1.89275,0.64432 -8.21892,0.69783 -3.98633,0.0337 -7.91684,-0.0556 -8.73448,-0.19842 z"
       id="path3853" />
    <path
       style="fill:#5c5b59;stroke-width:0.35277778"
       d="m 95.67134,221.53216 c -2.23132,-0.25041 -4.77132,-0.6065 -5.64445,-0.79131 -0.87312,-0.18481 -2.69875,-0.58445 -4.05694,-0.8881 -1.3582,-0.30364 -3.66007,-0.9462 -5.11528,-1.42792 -1.45521,-0.48171 -3.75074,-1.29514 -5.10119,-1.80763 -1.35044,-0.51248 -4.44606,-1.94416 -6.87916,-3.18151 -2.4331,-1.23735 -5.77319,-3.15726 -7.42243,-4.26647 -1.64924,-1.1092 -4.0485,-2.85323 -5.33169,-3.87561 -1.28319,-1.02238 -3.72242,-3.174 -5.4205,-4.78139 -1.69809,-1.60738 -4.354,-4.43573 -5.90201,-6.28521 -1.54802,-1.84949 -3.81949,-4.87083 -5.04771,-6.7141 -1.22822,-1.84326 -3.182,-5.17701 -4.34174,-7.40833 -1.15974,-2.23132 -2.66711,-5.4857 -3.34971,-7.23195 -0.6826,-1.74625 -1.62778,-4.445 -2.10039,-5.99722 -0.47261,-1.55222 -1.13018,-4.1716 -1.46126,-5.82083 -0.33108,-1.64924 -0.74346,-3.47486 -0.9164,-4.05695 -0.17294,-0.58208 -0.51241,-3.72116 -0.75437,-6.97574 -0.34472,-4.63666 -0.34927,-7.01317 -0.021,-10.98012 0.2304,-2.78449 0.82691,-7.07742 1.32558,-9.53985 0.49867,-2.46242 1.36057,-5.93513 1.91532,-7.71711 0.55475,-1.78198 1.43079,-4.35121 1.94675,-5.70941 0.51596,-1.35819 1.83224,-4.28368 2.92507,-6.50108 1.09284,-2.21739 3.20328,-5.86864 4.68988,-8.11388 1.4866,-2.245247 4.27717,-5.901977 6.20127,-8.126077 1.9241,-2.2241 5.28108,-5.58507 7.45996,-7.46882 2.17889,-1.88375 5.74485,-4.6106 7.92438,-6.05966 2.17951,-1.44905 5.70901,-3.51134 7.84332,-4.58285 2.1343,-1.07151 5.11235,-2.43733 6.61787,-3.03516 1.50553,-0.59783 4.29692,-1.55028 6.2031,-2.11656 1.90619,-0.56629 5.04002,-1.34639 6.96408,-1.73357 1.92405,-0.38717 4.68891,-0.87228 6.14411,-1.078 1.45521,-0.20573 4.233332,-0.45352 6.17361,-0.55064 1.94028,-0.0971 5.35341,-0.034 7.58474,0.14031 2.23132,0.1743 5.30767,0.49374 6.83633,0.70988 1.52867,0.21613 4.88516,0.93267 7.45889,1.59231 2.57372,0.65964 6.24425,1.78401 8.15672,2.49861 1.91247,0.7146 5.20952,2.16652 7.32676,3.22649 2.11724,1.05997 5.1035,2.70495 6.63612,3.65551 1.53262,0.95056 4.3566,2.93174 6.2755,4.40261 1.9189,1.47088 5.04762,4.2111 6.9527,6.08939 1.90508,1.87829 4.46073,4.64253 5.67923,6.14274 1.2185,1.50022 3.25532,4.27835 4.52627,6.173617 1.27094,1.89527 3.47786,5.82719 4.90426,8.73761 1.42641,2.91042 3.07644,6.69056 3.66675,8.40033 0.5903,1.70976 1.47359,4.64664 1.96286,6.52639 0.48927,1.87976 1.23101,5.40211 1.64833,7.82746 0.60419,3.51144 0.75876,5.84696 0.75878,11.46527 2e-5,5.12327 -0.17113,8.07001 -0.62493,10.75973 -0.34373,2.03729 -0.99279,5.29166 -1.44235,7.23194 -0.44956,1.94028 -1.40393,5.26114 -2.12081,7.37969 -0.71689,2.11856 -2.13043,5.61106 -3.14119,7.76111 -1.01077,2.15006 -2.74926,5.40461 -3.86332,7.23233 -1.11405,1.82772 -3.15493,4.81914 -4.53528,6.64759 -1.38034,1.82846 -4.01223,4.90467 -5.84863,6.83603 -1.8364,1.93136 -4.94277,4.80316 -6.90303,6.38178 -1.96027,1.57862 -5.07225,3.84715 -6.91551,5.04119 -1.84327,1.19403 -5.25639,3.11644 -7.58473,4.27202 -2.32833,1.15558 -5.34458,2.5166 -6.70278,3.0245 -1.35819,0.5079 -3.73944,1.31306 -5.29166,1.78926 -1.55222,0.47619 -4.09222,1.13897 -5.64445,1.47283 -1.55222,0.33387 -3.45722,0.74624 -4.23333,0.91638 -0.77611,0.17014 -3.24514,0.474 -5.48674,0.67524 -2.24159,0.20124 -5.7341,0.34391 -7.76112,0.31705 -2.02703,-0.0269 -5.51112,-0.25373 -7.74243,-0.50414 z M 47.4297,165.35025 c 0.82422,-1.12988 3.31972,-4.78599 5.54556,-8.12469 2.46589,-3.69877 4.24102,-6.03168 4.54365,-5.97137 0.27318,0.0545 2.97846,3.67087 6.01174,8.0365 5.51506,7.9375 5.51506,7.9375 9.92024,7.9375 3.69707,0 4.39918,-0.0851 4.36792,-0.52917 -0.0205,-0.29104 -3.48823,-5.49545 -7.7061,-11.56536 -4.93636,-7.10388 -7.59426,-11.23057 -7.45952,-11.5817 0.11513,-0.30002 3.38444,-5.11977 7.26512,-10.71056 3.88069,-5.59079 7.0558,-10.34059 7.0558,-10.55512 0,-0.26457 -1.45314,-0.39004 -4.51705,-0.39004 -4.51705,0 -4.51705,0 -9.43894,7.14376 -2.70704,3.92906 -5.15874,7.14375 -5.44823,7.14375 -0.28969,0 -2.67568,-3.17215 -5.30696,-7.05556 -4.78063,-7.05557 -4.78063,-7.05557 -9.4375,-7.154 -3.0311,-0.0641 -4.65688,0.0288 -4.65688,0.26586 0,0.20036 3.26831,5.06439 7.2629,10.80895 4.33204,6.22982 7.20158,10.67804 7.11095,11.02303 -0.0836,0.31811 -3.59829,5.54106 -7.81049,11.60655 -4.2122,6.0655 -7.56151,11.18518 -7.44291,11.37708 0.12269,0.19853 2.0317,0.34892 4.42888,0.34892 4.21324,0 4.21324,0 5.71182,-2.05433 z m 66.5809,1.49402 c 1.38147,-0.41025 2.42658,-1.07521 3.90249,-2.48299 1.31737,-1.25656 2.36643,-2.68187 3.02797,-4.114 1.01224,-2.19131 1.01224,-2.19131 1.11169,-27.58781 0.0928,-23.69619 0.0588,-25.42627 -0.5084,-25.84099 -0.34657,-0.25341 -1.6305,-0.44447 -2.9869,-0.44447 -1.30848,0 -2.78627,0.15482 -3.28397,0.34405 -0.90491,0.34405 -0.90491,0.34405 -0.90491,7.54358 0,7.16797 -0.004,7.20046 -0.79375,7.41224 -0.43656,0.117 -5.09087,0.21489 -10.34292,0.21754 -7.52137,0.004 -9.93403,0.1191 -11.36152,0.54303 -0.99679,0.29601 -2.49405,1.05572 -3.32723,1.68823 -0.83318,0.63252 -1.95591,1.96737 -2.49495,2.96632 -0.69018,1.27903 -1.09187,2.73013 -1.35799,4.90569 -0.23152,1.89278 -0.31672,7.5383 -0.21998,14.57534 0.12831,9.33212 0.2657,11.81959 0.73267,13.26524 0.31612,0.97861 1.14729,2.44817 1.84705,3.26568 0.69976,0.81751 1.97906,1.90057 2.84288,2.40681 0.86383,0.50624 2.23957,1.1295 3.05719,1.38503 1.05362,0.32928 4.06232,0.47146 10.33021,0.48819 7.10432,0.0189 9.21469,-0.0866 10.73037,-0.53671 z m -20.10168,-8.20339 c -0.55143,-0.55142 -1.18253,-1.67083 -1.40246,-2.48757 -0.2695,-1.00086 -0.36508,-5.0785 -0.29319,-12.50753 0.0951,-9.82481 0.17429,-11.12566 0.72895,-11.97141 0.34225,-0.52187 1.04965,-1.22888 1.57199,-1.57113 0.83694,-0.54839 1.90141,-0.62227 8.96505,-0.62227 7.58629,0 8.06867,0.0396 9.01136,0.73956 0.54781,0.40676 1.19211,1.12114 1.43178,1.5875 0.31946,0.62161 0.43716,3.94106 0.44097,12.43629 0.005,10.10128 -0.0704,11.74766 -0.58392,12.82984 -0.32402,0.68282 -1.07809,1.53966 -1.6757,1.90408 -0.97912,0.59707 -1.8829,0.66272 -9.13941,0.66391 -8.05284,0.001 -8.05284,0.001 -9.05542,-1.00127 z m 71.20865,7.54086 c 1.03909,-0.57554 2.50011,-1.74039 3.24669,-2.58856 0.74658,-0.84816 1.72204,-2.28226 2.16768,-3.18688 0.80571,-1.63556 0.81025,-1.7268 0.81025,-16.28505 0,-14.64028 0,-14.64028 -0.82702,-16.30411 -0.45486,-0.9151 -1.44997,-2.37153 -2.21134,-3.2365 -0.80339,-0.91269 -2.01078,-1.80958 -2.87714,-2.13723 -1.29986,-0.49159 -3.45374,-0.55204 -16.66228,-0.46768 -15.16945,0.0969 -15.16945,0.0969 -15.16945,3.62467 0,3.52779 0,3.52779 13.93473,3.70418 12.7973,0.16199 14.01313,0.22958 14.89531,0.82807 0.58119,0.39428 1.04541,1.10379 1.17534,1.79636 0.11811,0.62958 0.16209,1.60633 0.0977,2.17055 -0.117,1.02585 -0.117,1.02585 -10.70034,1.23185 -8.83384,0.17194 -10.8571,0.30753 -12.23946,0.82024 -0.91087,0.33784 -2.35348,1.22809 -3.2058,1.97833 -0.95132,0.83738 -1.90429,2.15524 -2.46808,3.41309 -0.50512,1.12695 -1.08537,3.08088 -1.28945,4.34206 -0.20407,1.26118 -0.37224,4.07118 -0.37371,6.24445 -0.001,2.17326 0.16787,4.74657 0.37631,5.71847 0.20843,0.9719 0.99379,2.71833 1.74522,3.88095 0.75145,1.16262 2.12872,2.67695 3.06062,3.36516 0.93189,0.68822 2.40873,1.48314 3.28185,1.76649 1.26277,0.4098 3.60807,0.50008 11.46528,0.44136 9.87778,-0.0738 9.87778,-0.0738 11.76705,-1.12027 z m -21.43443,-6.98444 c -0.46637,-0.23968 -1.18074,-0.88335 -1.5875,-1.43038 -0.65564,-0.88173 -0.75103,-1.56227 -0.84065,-5.99722 -0.0907,-4.48776 -0.0288,-5.11886 0.60177,-6.13202 0.38656,-0.62117 1.2258,-1.41492 1.86497,-1.76389 1.0167,-0.55509 2.11126,-0.63449 8.74685,-0.63449 6.63558,0 7.73014,0.0794 8.74685,0.63449 0.63917,0.34897 1.4784,1.14272 1.86497,1.76389 0.63051,1.01316 0.69244,1.64426 0.60176,6.13202 -0.0896,4.43495 -0.18501,5.11549 -0.84065,5.99722 -0.40676,0.54703 -1.12113,1.1907 -1.5875,1.43038 -0.59894,0.3078 -3.17877,0.43577 -8.78543,0.43577 -5.60667,0 -8.1865,-0.12797 -8.78544,-0.43577 z"
       id="path3851" />
    <path
       style="fill:#654a24;stroke-width:0.35277778"
       d="m 97.86594,221.82367 c -1.28226,-0.0727 -2.12774,-0.26688 -2.00765,-0.46119 0.12001,-0.19417 -0.49046,-0.33568 -1.44812,-0.33568 -0.91057,0 -2.22963,-0.14847 -2.93124,-0.32993 -0.70161,-0.18146 -2.54565,-0.59774 -4.09787,-0.92505 -1.55223,-0.32731 -4.09223,-0.98379 -5.64445,-1.45883 -1.55222,-0.47504 -4.40972,-1.50173 -6.35,-2.28153 -1.94028,-0.77979 -5.19465,-2.29364 -7.23194,-3.36411 -2.03729,-1.07047 -5.13292,-2.90724 -6.87917,-4.08173 -1.74625,-1.17449 -4.36289,-3.10226 -5.81477,-4.28393 -1.45187,-1.18168 -4.08551,-3.59355 -5.85254,-5.35973 -1.76702,-1.76618 -4.08485,-4.30618 -5.15072,-5.64445 -1.06587,-1.33826 -2.72629,-3.54446 -3.68982,-4.90265 -0.96353,-1.3582 -2.56543,-3.8982 -3.55978,-5.64445 -0.99435,-1.74625 -2.28087,-4.20687 -2.85894,-5.46805 -0.57806,-1.26118 -1.43727,-3.24556 -1.90936,-4.40973 -0.47208,-1.16416 -1.35136,-3.70416 -1.95396,-5.64444 -0.60259,-1.94028 -1.35323,-4.79778 -1.66808,-6.35 -0.31484,-1.55222 -0.72091,-3.39627 -0.90238,-4.09787 -0.18146,-0.70161 -0.32993,-2.10004 -0.32993,-3.10763 0,-1.00759 -0.13541,-1.74829 -0.30091,-1.646 -0.16549,0.10228 -0.38858,-1.59491 -0.49574,-3.77155 -0.10715,-2.17663 -0.1077,-5.66407 -0.001,-7.74987 0.1065,-2.0858 0.32958,-3.79236 0.49574,-3.79236 0.16617,0 0.30277,-0.59531 0.30357,-1.32291 7.9e-4,-0.72761 0.46223,-3.55928 1.02542,-6.2926 0.56318,-2.73333 1.69297,-6.98147 2.51063,-9.44029 0.81766,-2.45883 2.55755,-6.65185 3.86642,-9.31782 1.30887,-2.66597 3.36835,-6.34282 4.57662,-8.17078 1.20827,-1.82796 3.08044,-4.447337 4.16039,-5.820837 1.07995,-1.3735 3.88285,-4.41557 6.22867,-6.76016 2.34582,-2.34459 5.87643,-5.45965 7.84581,-6.92237 1.96938,-1.46272 4.90626,-3.45547 6.52639,-4.42835 1.62014,-0.97287 3.9462,-2.2696 5.16902,-2.88161 1.22283,-0.61201 3.92158,-1.80731 5.99722,-2.65623 2.07565,-0.84892 5.20265,-1.95133 6.94891,-2.44979 1.74625,-0.49847 4.68312,-1.21351 6.52638,-1.58899 1.84327,-0.37548 4.49921,-0.79492 5.9021,-0.9321 1.40289,-0.13718 2.46509,-0.38796 2.36043,-0.55729 -0.10594,-0.17143 2.95531,-0.30788 6.90693,-0.30788 3.95162,0 7.01287,0.13645 6.90692,0.30788 -0.10465,0.16933 0.95755,0.41993 2.36043,0.55688 1.4029,0.13696 4.07835,0.55418 5.94547,0.92716 1.86711,0.37298 4.96387,1.14429 6.8817,1.71404 1.91782,0.56974 5.22034,1.76212 7.33892,2.64973 2.11859,0.88761 5.17731,2.31886 6.79715,3.18057 1.61984,0.86171 4.25093,2.41871 5.84688,3.46001 1.59594,1.04129 4.48921,3.17284 6.42948,4.73677 1.94028,1.56393 4.96243,4.33097 6.71589,6.14898 1.75345,1.81801 4.33328,4.78969 5.73296,6.60373 1.39967,1.81404 3.40483,4.688517 4.45592,6.387717 1.05109,1.69921 2.61683,4.50125 3.47943,6.22675 0.8626,1.72551 2.12984,4.56603 2.81608,6.31228 0.68625,1.74625 1.72689,4.84188 2.31254,6.87917 0.58566,2.03729 1.31069,4.97418 1.61118,6.5264 0.30049,1.55222 0.65099,3.81132 0.77888,5.02022 0.1279,1.2089 0.37114,2.11234 0.54053,2.00765 0.172,-0.1063 0.30799,3.3328 0.30799,7.78879 0,4.53706 -0.13466,7.89593 -0.31215,7.78623 -0.17167,-0.1061 -0.42416,0.87672 -0.56108,2.18404 -0.13692,1.30733 -0.54297,3.80571 -0.90233,5.55196 -0.35937,1.74625 -1.06795,4.60375 -1.57463,6.35 -0.50668,1.74625 -1.63135,4.95587 -2.49927,7.1325 -0.86792,2.17663 -2.14759,5.03413 -2.84372,6.35 -0.69613,1.31587 -1.67295,3.10687 -2.1707,3.98 -0.49776,0.87312 -1.70653,2.77812 -2.68615,4.23333 -0.97962,1.45521 -2.63932,3.67771 -3.68821,4.93889 -1.04889,1.26118 -2.9572,3.45739 -4.24067,4.88047 -1.28348,1.42308 -3.9211,3.89033 -5.86137,5.48277 -1.94028,1.59245 -4.63903,3.6941 -5.99723,4.67033 -1.35819,0.97624 -4.23928,2.76044 -6.40241,3.9649 -2.16314,1.20446 -5.33814,2.79784 -7.05556,3.54085 -1.71742,0.74301 -4.86883,1.90625 -7.00314,2.58499 -2.1343,0.67874 -5.22993,1.51194 -6.87917,1.85156 -1.64923,0.33961 -3.45886,0.75898 -4.02139,0.93192 -0.56253,0.17294 -1.80221,0.31443 -2.75485,0.31443 -0.95263,0 -1.64853,0.13515 -1.54645,0.30033 0.10209,0.16519 -1.35698,0.40249 -3.24237,0.52734 -1.88541,0.12486 -4.698,0.19725 -6.25022,0.16087 -1.55224,-0.0364 -3.819038,-0.12264 -5.03735,-0.19167 z M 47.4297,165.35025 c 0.82422,-1.12988 3.31972,-4.78599 5.54556,-8.12469 2.46589,-3.69877 4.24102,-6.03168 4.54365,-5.97137 0.27318,0.0545 2.97846,3.67087 6.01174,8.0365 5.51506,7.9375 5.51506,7.9375 9.92024,7.9375 3.69707,0 4.39918,-0.0851 4.36792,-0.52917 -0.0205,-0.29104 -3.48823,-5.49545 -7.7061,-11.56536 -4.93636,-7.10388 -7.59426,-11.23057 -7.45952,-11.5817 0.11513,-0.30002 3.38444,-5.11977 7.26512,-10.71056 3.88069,-5.59079 7.0558,-10.34059 7.0558,-10.55512 0,-0.26457 -1.45314,-0.39004 -4.51705,-0.39004 -4.51705,0 -4.51705,0 -9.43894,7.14376 -2.70704,3.92906 -5.15874,7.14375 -5.44823,7.14375 -0.28969,0 -2.67568,-3.17215 -5.30696,-7.05556 -4.78063,-7.05557 -4.78063,-7.05557 -9.4375,-7.154 -3.0311,-0.0641 -4.65688,0.0288 -4.65688,0.26586 0,0.20036 3.26831,5.06439 7.2629,10.80895 4.33204,6.22982 7.20158,10.67804 7.11095,11.02303 -0.0836,0.31811 -3.59829,5.54106 -7.81049,11.60655 -4.2122,6.0655 -7.56151,11.18518 -7.44291,11.37708 0.12269,0.19853 2.0317,0.34892 4.42888,0.34892 4.21324,0 4.21324,0 5.71182,-2.05433 z m 66.5809,1.49402 c 1.38147,-0.41025 2.42658,-1.07521 3.90249,-2.48299 1.31737,-1.25656 2.36643,-2.68187 3.02797,-4.114 1.01224,-2.19131 1.01224,-2.19131 1.11169,-27.58781 0.0928,-23.69619 0.0588,-25.42627 -0.5084,-25.84099 -0.34657,-0.25341 -1.6305,-0.44447 -2.9869,-0.44447 -1.30848,0 -2.78627,0.15482 -3.28397,0.34405 -0.90491,0.34405 -0.90491,0.34405 -0.90491,7.54358 0,7.16797 -0.004,7.20046 -0.79375,7.41224 -0.43656,0.117 -5.09087,0.21489 -10.34292,0.21754 -7.52137,0.004 -9.93403,0.1191 -11.36152,0.54303 -0.99679,0.29601 -2.49405,1.05572 -3.32723,1.68823 -0.83318,0.63252 -1.95591,1.96737 -2.49495,2.96632 -0.69018,1.27903 -1.09187,2.73013 -1.35799,4.90569 -0.23152,1.89278 -0.31672,7.5383 -0.21998,14.57534 0.12831,9.33212 0.2657,11.81959 0.73267,13.26524 0.31612,0.97861 1.14729,2.44817 1.84705,3.26568 0.69976,0.81751 1.97906,1.90057 2.84288,2.40681 0.86383,0.50624 2.23957,1.1295 3.05719,1.38503 1.05362,0.32928 4.06232,0.47146 10.33021,0.48819 7.10432,0.0189 9.21469,-0.0866 10.73037,-0.53671 z m -20.10168,-8.20339 c -0.55143,-0.55142 -1.18253,-1.67083 -1.40246,-2.48757 -0.2695,-1.00086 -0.36508,-5.0785 -0.29319,-12.50753 0.0951,-9.82481 0.17429,-11.12566 0.72895,-11.97141 0.34225,-0.52187 1.04965,-1.22888 1.57199,-1.57113 0.83694,-0.54839 1.90141,-0.62227 8.96505,-0.62227 7.58629,0 8.06867,0.0396 9.01136,0.73956 0.54781,0.40676 1.19211,1.12114 1.43178,1.5875 0.31946,0.62161 0.43716,3.94106 0.44097,12.43629 0.005,10.10128 -0.0704,11.74766 -0.58392,12.82984 -0.32402,0.68282 -1.07809,1.53966 -1.6757,1.90408 -0.97912,0.59707 -1.8829,0.66272 -9.13941,0.66391 -8.05284,0.001 -8.05284,0.001 -9.05542,-1.00127 z m 71.20865,7.54086 c 1.03909,-0.57554 2.50011,-1.74039 3.24669,-2.58856 0.74658,-0.84816 1.72204,-2.28226 2.16768,-3.18688 0.80571,-1.63556 0.81025,-1.7268 0.81025,-16.28505 0,-14.64028 0,-14.64028 -0.82702,-16.30411 -0.45486,-0.9151 -1.44997,-2.37153 -2.21134,-3.2365 -0.80339,-0.91269 -2.01078,-1.80958 -2.87714,-2.13723 -1.29986,-0.49159 -3.45374,-0.55204 -16.66228,-0.46768 -15.16945,0.0969 -15.16945,0.0969 -15.16945,3.62467 0,3.52779 0,3.52779 13.93473,3.70418 12.7973,0.16199 14.01313,0.22958 14.89531,0.82807 0.58119,0.39428 1.04541,1.10379 1.17534,1.79636 0.11811,0.62958 0.16209,1.60633 0.0977,2.17055 -0.117,1.02585 -0.117,1.02585 -10.70034,1.23185 -8.83384,0.17194 -10.8571,0.30753 -12.23946,0.82024 -0.91087,0.33784 -2.35348,1.22809 -3.2058,1.97833 -0.95132,0.83738 -1.90429,2.15524 -2.46808,3.41309 -0.50512,1.12695 -1.08537,3.08088 -1.28945,4.34206 -0.20407,1.26118 -0.37224,4.07118 -0.37371,6.24445 -0.001,2.17326 0.16787,4.74657 0.37631,5.71847 0.20843,0.9719 0.99379,2.71833 1.74522,3.88095 0.75145,1.16262 2.12872,2.67695 3.06062,3.36516 0.93189,0.68822 2.40873,1.48314 3.28185,1.76649 1.26277,0.4098 3.60807,0.50008 11.46528,0.44136 9.87778,-0.0738 9.87778,-0.0738 11.76705,-1.12027 z m -21.43443,-6.98444 c -0.46637,-0.23968 -1.18074,-0.88335 -1.5875,-1.43038 -0.65564,-0.88173 -0.75103,-1.56227 -0.84065,-5.99722 -0.0907,-4.48776 -0.0288,-5.11886 0.60177,-6.13202 0.38656,-0.62117 1.2258,-1.41492 1.86497,-1.76389 1.0167,-0.55509 2.11126,-0.63449 8.74685,-0.63449 6.63558,0 7.73014,0.0794 8.74685,0.63449 0.63917,0.34897 1.4784,1.14272 1.86497,1.76389 0.63051,1.01316 0.69244,1.64426 0.60176,6.13202 -0.0896,4.43495 -0.18501,5.11549 -0.84065,5.99722 -0.40676,0.54703 -1.12113,1.1907 -1.5875,1.43038 -0.59894,0.3078 -3.17877,0.43577 -8.78543,0.43577 -5.60667,0 -8.1865,-0.12797 -8.78544,-0.43577 z"
       id="path3849" />
    <path
       style="fill:#463a28;stroke-width:0.35277778"
       d="m 97.86594,221.82367 c -1.28226,-0.0727 -2.12774,-0.26688 -2.00765,-0.46119 0.12001,-0.19417 -0.49046,-0.33568 -1.44812,-0.33568 -0.91057,0 -2.22963,-0.14847 -2.93124,-0.32993 -0.70161,-0.18146 -2.54565,-0.59774 -4.09787,-0.92505 -1.55223,-0.32731 -4.09223,-0.98379 -5.64445,-1.45883 -1.55222,-0.47504 -4.40972,-1.50173 -6.35,-2.28153 -1.94028,-0.77979 -5.19465,-2.29364 -7.23194,-3.36411 -2.03729,-1.07047 -5.13292,-2.90724 -6.87917,-4.08173 -1.74625,-1.17449 -4.36289,-3.10226 -5.81477,-4.28393 -1.45187,-1.18168 -4.08551,-3.59355 -5.85254,-5.35973 -1.76702,-1.76618 -4.08485,-4.30618 -5.15072,-5.64445 -1.06587,-1.33826 -2.72629,-3.54446 -3.68982,-4.90265 -0.96353,-1.3582 -2.56543,-3.8982 -3.55978,-5.64445 -0.99435,-1.74625 -2.28087,-4.20687 -2.85894,-5.46805 -0.57806,-1.26118 -1.43727,-3.24556 -1.90936,-4.40973 -0.47208,-1.16416 -1.35136,-3.70416 -1.95396,-5.64444 -0.60259,-1.94028 -1.35323,-4.79778 -1.66808,-6.35 -0.31484,-1.55222 -0.72091,-3.39627 -0.90238,-4.09787 -0.18146,-0.70161 -0.32993,-2.10004 -0.32993,-3.10763 0,-1.00759 -0.13541,-1.74829 -0.30091,-1.646 -0.16549,0.10228 -0.38858,-1.59491 -0.49574,-3.77155 -0.10715,-2.17663 -0.1077,-5.66407 -0.001,-7.74987 0.1065,-2.0858 0.32958,-3.79236 0.49574,-3.79236 0.16617,0 0.30277,-0.59531 0.30357,-1.32291 7.9e-4,-0.72761 0.46223,-3.55928 1.02542,-6.2926 0.56318,-2.73333 1.69297,-6.98147 2.51063,-9.44029 0.81766,-2.45883 2.55755,-6.65185 3.86642,-9.31782 1.30887,-2.66597 3.36835,-6.34282 4.57662,-8.17078 1.20827,-1.82796 3.08044,-4.447337 4.16039,-5.820837 1.07995,-1.3735 3.88285,-4.41557 6.22867,-6.76016 2.34582,-2.34459 5.87643,-5.45965 7.84581,-6.92237 1.96938,-1.46272 4.90626,-3.45547 6.52639,-4.42835 1.62014,-0.97287 3.9462,-2.2696 5.16902,-2.88161 1.22283,-0.61201 3.92158,-1.80731 5.99722,-2.65623 2.07565,-0.84892 5.20265,-1.95133 6.94891,-2.44979 1.74625,-0.49847 4.68312,-1.21351 6.52638,-1.58899 1.84327,-0.37548 4.49921,-0.79492 5.9021,-0.9321 1.40289,-0.13718 2.46509,-0.38796 2.36043,-0.55729 -0.10594,-0.17143 2.95531,-0.30788 6.90693,-0.30788 3.95162,0 7.01287,0.13645 6.90692,0.30788 -0.10465,0.16933 0.95755,0.41993 2.36043,0.55688 1.4029,0.13696 4.07835,0.55418 5.94547,0.92716 1.86711,0.37298 4.96387,1.14429 6.8817,1.71404 1.91782,0.56974 5.22034,1.76212 7.33892,2.64973 2.11859,0.88761 5.17731,2.31886 6.79715,3.18057 1.61984,0.86171 4.25093,2.41871 5.84688,3.46001 1.59594,1.04129 4.48921,3.17284 6.42948,4.73677 1.94028,1.56393 4.96243,4.33097 6.71589,6.14898 1.75345,1.81801 4.33328,4.78969 5.73296,6.60373 1.39967,1.81404 3.40483,4.688517 4.45592,6.387717 1.05109,1.69921 2.61683,4.50125 3.47943,6.22675 0.8626,1.72551 2.12984,4.56603 2.81608,6.31228 0.68625,1.74625 1.72689,4.84188 2.31254,6.87917 0.58566,2.03729 1.31069,4.97418 1.61118,6.5264 0.30049,1.55222 0.65099,3.81132 0.77888,5.02022 0.1279,1.2089 0.37114,2.11234 0.54053,2.00765 0.172,-0.1063 0.30799,3.3328 0.30799,7.78879 0,4.53706 -0.13466,7.89593 -0.31215,7.78623 -0.17167,-0.1061 -0.42416,0.87672 -0.56108,2.18404 -0.13692,1.30733 -0.54297,3.80571 -0.90233,5.55196 -0.35937,1.74625 -1.06795,4.60375 -1.57463,6.35 -0.50668,1.74625 -1.63135,4.95587 -2.49927,7.1325 -0.86792,2.17663 -2.14759,5.03413 -2.84372,6.35 -0.69613,1.31587 -1.67295,3.10687 -2.1707,3.98 -0.49776,0.87312 -1.70653,2.77812 -2.68615,4.23333 -0.97962,1.45521 -2.63932,3.67771 -3.68821,4.93889 -1.04889,1.26118 -2.9572,3.45739 -4.24067,4.88047 -1.28348,1.42308 -3.9211,3.89033 -5.86137,5.48277 -1.94028,1.59245 -4.63903,3.6941 -5.99723,4.67033 -1.35819,0.97624 -4.23928,2.76044 -6.40241,3.9649 -2.16314,1.20446 -5.33814,2.79784 -7.05556,3.54085 -1.71742,0.74301 -4.86883,1.90625 -7.00314,2.58499 -2.1343,0.67874 -5.22993,1.51194 -6.87917,1.85156 -1.64923,0.33961 -3.45886,0.75898 -4.02139,0.93192 -0.56253,0.17294 -1.80221,0.31443 -2.75485,0.31443 -0.95263,0 -1.64853,0.13515 -1.54645,0.30033 0.10209,0.16519 -1.35698,0.40249 -3.24237,0.52734 -1.88541,0.12486 -4.698,0.19725 -6.25022,0.16087 -1.55224,-0.0364 -3.819038,-0.12264 -5.03735,-0.19167 z M 51.7505,159.64347 c 3.0273,-4.46264 5.61512,-8.11282 5.7507,-8.11151 0.13559,0.001 2.61173,3.42675 5.50255,7.61208 2.89081,4.18533 5.48646,7.84013 5.76811,8.12178 0.4049,0.4049 1.44523,0.49148 4.9702,0.41362 3.66701,-0.081 4.47646,-0.19417 4.56147,-0.63773 0.0568,-0.29659 -3.25027,-5.37535 -7.34913,-11.28613 -4.09885,-5.91078 -7.60697,-11.03557 -7.79581,-11.38842 -0.27448,-0.51286 0.10188,-1.2918 1.87629,-3.88331 1.2208,-1.78298 4.48592,-6.49184 7.25582,-10.46415 2.76991,-3.9723 5.03619,-7.50898 5.03619,-7.85927 0,-0.58786 -0.37322,-0.62933 -4.84908,-0.53873 -4.84908,0.0981 -4.84908,0.0981 -9.68067,7.1468 -2.65737,3.87676 -4.97721,7.09719 -5.15519,7.15652 -0.17799,0.0593 -2.52125,-3.15225 -5.20724,-7.13684 -4.88363,-7.24472 -4.88363,-7.24472 -9.75128,-7.24472 -4.22863,0 -4.86765,0.0742 -4.86765,0.56494 0,0.31072 3.17232,5.13266 7.04961,10.7154 3.87729,5.58275 7.14675,10.40357 7.26546,10.71293 0.14307,0.37284 -2.19725,4.04524 -6.94135,10.89225 -3.93646,5.68137 -7.46543,10.75487 -7.84215,11.27444 -0.37671,0.51957 -0.58916,1.19426 -0.4721,1.4993 0.1784,0.46491 0.95361,0.55464 4.79195,0.55464 4.57911,0 4.57911,0 10.0833,-8.11389 z m 63.97937,6.8904 c 1.03976,-0.5759 2.44855,-1.68715 3.13064,-2.46944 0.6821,-0.7823 1.73639,-2.45423 2.34287,-3.71541 1.10269,-2.29305 1.10269,-2.29305 1.20187,-27.93935 0.0992,-25.6463 0.0992,-25.6463 -0.65699,-26.05099 -0.46316,-0.24787 -1.97618,-0.35749 -3.90463,-0.28287 -2.3147,0.0896 -3.23698,0.26194 -3.48274,0.65098 -0.18386,0.29104 -0.33672,3.66146 -0.33969,7.48981 -0.005,6.92783 -0.009,6.96149 -0.79915,7.14089 -0.43657,0.0991 -5.31813,0.22122 -10.84793,0.2713 -9.64633,0.0874 -10.12573,0.12399 -11.81806,0.90288 -0.97014,0.4465 -2.294,1.31962 -2.94192,1.94027 -0.64791,0.62066 -1.56563,1.88694 -2.03938,2.81395 -0.47692,0.93325 -1.00906,2.82258 -1.19232,4.23334 -0.18205,1.40131 -0.33099,7.1516 -0.33099,12.7784 0,5.62681 0.15072,11.39121 0.33493,12.80977 0.1842,1.41857 0.63397,3.25529 0.99949,4.0816 0.36551,0.8263 1.28146,2.10278 2.03544,2.83661 0.75397,0.73382 2.00586,1.6617 2.78197,2.06194 0.77611,0.40024 2.04611,0.93372 2.82222,1.18551 1.04247,0.3382 3.94554,0.43821 11.11251,0.38285 9.7014,-0.0749 9.7014,-0.0749 11.59186,-1.12204 z m -21.15636,-7.77222 c -0.50679,-0.27543 -1.14179,-1.02314 -1.41111,-1.66157 -0.38437,-0.91116 -0.48968,-3.66428 -0.48968,-12.80245 0,-8.83638 0.10926,-11.83293 0.45339,-12.43541 0.24936,-0.43657 0.8771,-1.07157 1.39498,-1.41111 0.82319,-0.53973 1.89744,-0.61736 8.54246,-0.61736 4.18047,0 8.04234,0.12332 8.58194,0.27405 0.53959,0.15072 1.29306,0.78572 1.67437,1.41111 0.65193,1.06921 0.69338,1.82748 0.69462,12.70805 10e-4,9.52781 -0.0909,11.74927 -0.5208,12.58065 -0.28717,0.55532 -0.94358,1.34119 -1.45869,1.74637 -0.88702,0.69773 -1.34934,0.73596 -8.73831,0.72258 -6.04936,-0.0109 -8.0087,-0.1266 -8.72317,-0.51491 z m 70.42566,7.88439 c 0.97399,-0.51421 2.53302,-1.74973 3.46454,-2.74559 0.93151,-0.99586 2.03962,-2.55952 2.46246,-3.47479 0.75079,-1.62517 0.7688,-2.00695 0.7688,-16.30441 0,-14.38079 -0.0139,-14.67004 -0.78257,-16.31913 -0.43041,-0.92337 -1.51666,-2.46368 -2.41389,-3.42289 -0.92273,-0.98647 -2.26841,-1.9849 -3.09799,-2.29857 -1.26704,-0.47907 -3.55539,-0.54137 -16.8125,-0.45768 -15.34583,0.0969 -15.34583,0.0969 -15.44958,3.27187 -0.0571,1.74626 -0.0144,3.53219 0.0949,3.96876 0.19866,0.79375 0.19866,0.79375 13.15652,0.80216 7.12682,0.005 13.59286,0.15555 14.36897,0.33537 0.77612,0.17982 1.68893,0.66987 2.02848,1.089 0.37753,0.46601 0.61736,1.36095 0.61736,2.30374 0,1.31012 -0.11923,1.56882 -0.79375,1.72225 -0.43656,0.0993 -5.47688,0.2214 -11.2007,0.27131 -9.95643,0.0868 -10.46975,0.12435 -11.85777,0.86693 -0.79795,0.42691 -2.17553,1.58225 -3.0613,2.56743 -1.08554,1.20738 -1.87751,2.56422 -2.42973,4.1627 -0.73898,2.1391 -0.81925,2.99367 -0.81925,8.72147 0,6.13855 0.0312,6.41667 0.93853,8.35206 0.51619,1.10114 1.607,2.72728 2.42403,3.61364 0.81702,0.88637 2.03365,1.95035 2.70361,2.36441 0.66996,0.41406 1.88102,0.96471 2.69125,1.22366 1.10934,0.35456 3.91248,0.45236 11.35091,0.39603 9.87778,-0.0748 9.87778,-0.0748 11.64865,-1.00973 z m -21.35004,-7.80643 c -0.48507,-0.24238 -1.15951,-0.9941 -1.49876,-1.67049 -0.48537,-0.96777 -0.61692,-2.13945 -0.61736,-5.49871 -3e-4,-2.34788 0.17224,-4.76455 0.38344,-5.37037 0.22182,-0.63633 0.92947,-1.44069 1.67569,-1.90473 1.23961,-0.77083 1.59765,-0.80323 8.87644,-0.80323 7.22749,0 7.64417,0.037 8.84706,0.78508 0.69429,0.4318 1.44835,1.19334 1.67569,1.6923 0.24676,0.54157 0.41314,2.71334 0.41281,5.38852 -3.5e-4,3.56151 -0.12715,4.73375 -0.61736,5.71114 -0.33925,0.67639 -1.01369,1.42811 -1.49876,1.67049 -0.62681,0.3132 -3.17812,0.44068 -8.81944,0.44068 -5.64132,0 -8.19264,-0.12748 -8.81945,-0.44068 z"
       id="path3847" />
    <path
       style="fill:#2c2c2c;stroke-width:0.35277778"
       d="m 97.25883,221.40402 c 1.60992,-0.19852 1.45594,-0.24218 -1.76388,-0.50019 -1.94028,-0.15549 -4.08341,-0.42248 -4.7625,-0.59332 -0.6791,-0.17084 -2.42535,-0.57163 -3.88056,-0.89065 -1.45521,-0.31901 -3.12208,-0.72254 -3.70417,-0.89672 -0.58208,-0.17419 -2.32833,-0.73457 -3.88055,-1.24531 -1.55222,-0.51074 -4.40107,-1.62058 -6.33077,-2.46632 -1.9297,-0.84575 -4.94595,-2.36133 -6.70278,-3.36796 -1.75682,-1.00664 -4.22611,-2.54324 -5.48729,-3.41467 -1.26118,-0.87143 -3.4043,-2.46014 -4.7625,-3.53045 -1.35819,-1.07032 -4.23406,-3.71248 -6.39081,-5.87147 -2.15675,-2.15899 -5.27088,-5.74131 -6.92028,-7.96071 -1.6494,-2.2194 -4.04163,-5.86091 -5.31606,-8.09223 -1.27444,-2.23132 -3.11375,-5.96194 -4.08736,-8.29027 -0.9736,-2.32834 -2.15517,-5.50334 -2.62571,-7.05556 -0.47053,-1.55222 -1.12332,-4.09222 -1.45063,-5.64444 -0.32731,-1.55223 -0.73444,-3.37785 -0.90473,-4.05695 -0.17028,-0.6791 -0.43438,-2.82222 -0.58688,-4.7625 -0.23876,-3.03774 -0.30773,-3.30726 -0.49651,-1.94028 -0.12057,0.87313 -0.22054,-1.98437 -0.22215,-6.35 -0.002,-4.36562 0.0989,-7.3025 0.22331,-6.52639 0.18862,1.17654 0.2725,0.85399 0.50458,-1.94027 0.1531,-1.84327 0.41663,-3.98639 0.58562,-4.7625 0.169,-0.77611 0.5714,-2.60174 0.89423,-4.05695 0.32283,-1.45521 1.02762,-4.07459 1.56621,-5.82084 0.53858,-1.74625 1.48787,-4.445 2.10953,-5.99722 0.62167,-1.55223 1.94173,-4.40263 2.93347,-6.33423 0.99175,-1.9316 2.85451,-5.1066 4.13947,-7.05556 1.28496,-1.94895 3.53001,-4.972297 4.98898,-6.718547 1.45898,-1.74625 4.30806,-4.7625 6.3313,-6.70278 2.02324,-1.94028 4.9209,-4.46063 6.43926,-5.60079 1.51835,-1.14015 4.13491,-2.94054 5.81457,-4.00087 1.67966,-1.06032 4.80018,-2.77124 6.93448,-3.80204 2.13431,-1.03081 5.41023,-2.44091 7.27983,-3.13356 1.86961,-0.69265 4.96523,-1.66819 6.87917,-2.16787 1.91394,-0.49967 5.54364,-1.22863 8.066,-1.6199 3.37941,-0.52422 6.354172,-0.71362 11.30568,-0.71982 4.41679,-0.005 8.10412,0.19092 10.75973,0.57326 2.22209,0.31992 5.9291,1.05472 8.23779,1.63288 2.30869,0.57817 5.72182,1.6128 7.58472,2.2992 1.86291,0.6864 5.2921,2.18929 7.62044,3.33977 2.32833,1.15047 5.66208,3.01419 7.40833,4.1416 1.74625,1.1274 4.7625,3.32835 6.70278,4.89099 1.94027,1.56264 5.16547,4.5417 7.1671,6.62014 2.00163,2.07843 4.78085,5.31365 6.17606,7.18938 1.3952,1.875727 3.45011,4.941997 4.56648,6.813937 1.11636,1.87193 2.74023,4.9343 3.6086,6.80525 0.86837,1.87096 2.06244,4.77183 2.65348,6.44638 0.59104,1.67454 1.53855,4.80343 2.10557,6.95307 0.56702,2.14965 1.27628,5.5957 1.57613,7.65789 0.29986,2.06219 0.57107,4.60219 0.60269,5.64445 0.0575,1.895 0.0575,1.895 0.29528,-0.0453 0.13377,-1.09163 0.23868,1.4543 0.23985,5.82083 10e-4,4.27316 -0.10665,6.9684 -0.23985,5.99723 -0.24193,-1.76389 -0.24193,-1.76389 -0.29736,-0.0453 -0.0305,0.94524 -0.30345,3.40587 -0.60659,5.46806 -0.30315,2.06219 -0.93358,5.26833 -1.40097,7.12476 -0.46739,1.85642 -1.34529,4.87267 -1.95088,6.70277 -0.6056,1.83011 -2.25921,5.70871 -3.67469,8.61913 -1.41549,2.91042 -3.56367,6.79979 -4.77374,8.64306 -1.21006,1.84326 -3.67123,5.09764 -5.46926,7.23194 -1.79803,2.13431 -4.27861,4.84321 -5.51241,6.01979 -1.2338,1.17658 -3.51327,3.14838 -5.06549,4.38178 -1.55223,1.23339 -4.33321,3.2264 -6.17996,4.4289 -1.84676,1.2025 -4.86301,2.97214 -6.70278,3.93254 -1.83977,0.96039 -4.77379,2.32091 -6.52004,3.02339 -1.74625,0.70247 -4.445,1.66501 -5.99722,2.13898 -1.55223,0.47397 -4.01285,1.12579 -5.46806,1.44849 -1.45521,0.3227 -3.20146,0.7265 -3.88056,0.89734 -0.67909,0.17084 -2.82222,0.43675 -4.7625,0.5909 -3.05499,0.24271 -3.31502,0.31007 -1.94027,0.50263 0.87312,0.12229 -2.2225,0.22125 -6.87918,0.21991 -4.656678,-0.001 -7.67292,-0.10031 -6.70279,-0.21993 z m -50.01041,-54.6168 c 0.56389,-0.72761 2.82042,-4.02167 5.01452,-7.32014 2.19409,-3.29847 4.29823,-6.31472 4.67587,-6.70278 0.68661,-0.70555 0.68661,-0.70555 1.22039,0 0.29358,0.38806 2.78331,3.95993 5.53273,7.9375 4.99895,7.23195 4.99895,7.23195 9.93432,7.23195 4.80403,0 4.93828,-0.0205 5.04496,-0.76982 0.0758,-0.53268 -2.10724,-3.9559 -7.08671,-11.1125 -3.95796,-5.68848 -7.47658,-10.77655 -7.81916,-11.30684 -0.62286,-0.96415 -0.62286,-0.96415 4.96673,-8.99583 3.07427,-4.41742 6.41887,-9.26372 7.43244,-10.76956 1.0587,-1.57288 1.75707,-2.96139 1.64126,-3.26319 -0.16545,-0.43115 -1.10028,-0.52533 -5.2145,-0.52533 -5.01292,0 -5.01292,0 -9.79205,6.96737 -2.62853,3.83205 -4.97514,6.96736 -5.21471,6.96736 -0.23957,0 -2.53929,-3.09562 -5.1105,-6.87916 -4.67492,-6.87918 -4.67492,-6.87918 -9.75477,-6.87918 -5.07985,0 -5.07985,0 -5.05674,0.88194 0.0144,0.54905 2.65416,4.65854 6.99349,10.88717 3.83371,5.50287 7.04863,10.20914 7.14428,10.45837 0.0956,0.24925 -3.32925,5.49667 -7.61086,11.66095 -4.28161,6.16428 -7.78474,11.47249 -7.78474,11.79602 0,0.32353 0.10583,0.69408 0.23518,0.82343 0.12935,0.12935 2.33851,0.23518 4.90925,0.23518 4.67406,0 4.67406,0 5.69932,-1.32291 z m 68.1404,0.32004 c 0.85218,-0.45456 2.29271,-1.52175 3.20119,-2.37153 0.90848,-0.84977 2.07093,-2.40106 2.58322,-3.4473 0.5123,-1.04624 1.09194,-2.59842 1.28811,-3.4493 0.22205,-0.96319 0.35787,-10.86678 0.35987,-26.2415 0.002,-14.94364 -0.12872,-24.9034 -0.33093,-25.22362 -0.24956,-0.39521 -1.16355,-0.55454 -3.61056,-0.62938 -2.19811,-0.0672 -3.56668,0.0521 -4.15837,0.36269 -0.88194,0.46291 -0.88194,0.46291 -1.05833,7.68494 -0.17639,7.22203 -0.17639,7.22203 -10.75973,7.39842 -10.50835,0.17514 -10.59731,0.18294 -12.55413,1.1006 -1.08393,0.50832 -2.52989,1.48331 -3.21323,2.16665 -0.68334,0.68335 -1.62212,2.01371 -2.08616,2.95636 -0.84371,1.7139 -0.84371,1.7139 -0.84371,16.88334 0,15.16945 0,15.16945 0.98428,17.17379 0.54135,1.10239 1.5394,2.49175 2.21788,3.08746 0.67848,0.59572 2.06118,1.50543 3.07267,2.02158 1.01148,0.51616 2.31531,1.06079 2.89739,1.2103 0.58208,0.1495 5.42395,0.24284 10.75973,0.20741 9.43657,-0.0627 9.74369,-0.087 11.25081,-0.89091 z m -20.89248,-8.89095 c -0.50455,-0.39688 -1.0807,-1.30969 -1.28033,-2.02847 -0.21103,-0.75982 -0.36296,-5.66318 -0.36296,-11.71382 0,-6.14855 0.15071,-10.94963 0.36831,-11.7332 0.21445,-0.77219 0.75964,-1.58276 1.30504,-1.94027 0.81895,-0.53683 1.91882,-0.61403 8.74784,-0.61403 5.91048,0 8.02939,0.11673 8.7082,0.47973 0.4934,0.26385 1.07337,0.86664 1.28883,1.33952 0.26173,0.57441 0.39131,4.689 0.39043,12.39666 -10e-4,10.90835 -0.0397,11.59981 -0.70572,12.69219 -0.38742,0.63543 -1.11153,1.31011 -1.60915,1.49931 -0.49761,0.18919 -4.28614,0.34398 -8.41893,0.34398 -7.03572,0 -7.57261,-0.046 -8.43156,-0.7216 z m 70.62136,8.72245 c 1.03916,-0.54725 2.57782,-1.70333 3.41923,-2.56908 0.84141,-0.86575 1.97556,-2.48175 2.52032,-3.59112 0.99049,-2.01704 0.99049,-2.01704 0.99049,-16.65731 0,-14.54939 -0.005,-14.65116 -0.81407,-16.39264 -0.44775,-0.9638 -1.35885,-2.4172 -2.02469,-3.22977 -0.66584,-0.81256 -2.03724,-1.88931 -3.04755,-2.39278 -1.83694,-0.91538 -1.83694,-0.91538 -17.21934,-0.91538 -11.49372,0 -15.48942,0.10702 -15.80574,0.42333 -0.2738,0.2738 -0.42333,1.69158 -0.42333,4.01375 0,2.51361 0.13739,3.70446 0.45811,3.97063 0.30524,0.25332 5.04889,0.41489 14.21547,0.48416 12.56996,0.095 13.8413,0.15901 14.72984,0.74159 0.86606,0.56784 0.9608,0.81877 0.86578,2.29306 -0.1067,1.65543 -0.1067,1.65543 -11.04281,1.83182 -10.93611,0.17639 -10.93611,0.17639 -12.84904,1.23473 -1.07361,0.59398 -2.50498,1.80697 -3.26233,2.76461 -0.81394,1.02921 -1.66472,2.70904 -2.14402,4.23333 -0.69776,2.21904 -0.79461,3.27954 -0.79461,8.70067 0,5.95882 0.0329,6.24379 0.94546,8.19082 0.52001,1.10946 1.69373,2.81716 2.60827,3.79488 0.91455,0.97772 2.20743,2.11426 2.87307,2.52565 0.66564,0.41139 1.87317,0.95985 2.6834,1.21881 1.10934,0.35456 3.91248,0.45236 11.35091,0.39603 9.87778,-0.0748 9.87778,-0.0748 11.76718,-1.06979 z m -21.39605,-8.37042 c -0.44518,-0.17866 -1.05236,-0.90628 -1.34929,-1.61692 -0.41605,-0.99575 -0.51358,-2.3642 -0.42529,-5.96689 0.1,-4.07895 0.20449,-4.77554 0.82012,-5.46497 0.38805,-0.43458 1.21639,-1.00635 1.84075,-1.27062 0.82445,-0.34895 2.97621,-0.48047 7.86064,-0.48047 4.9174,0 7.0384,0.13076 7.8896,0.48641 0.64028,0.26753 1.50831,0.92394 1.92894,1.45869 0.69521,0.88381 0.76479,1.38838 0.76479,5.54569 0,3.52299 -0.13396,4.85572 -0.58327,5.80255 -0.32079,0.67603 -0.96613,1.37471 -1.43407,1.55263 -0.46795,0.17791 -4.37267,0.31341 -8.67715,0.30111 -4.30449,-0.0123 -8.19058,-0.16854 -8.63577,-0.34721 z"
       id="path3845" />
  </g>
</svg>
